<svg xmlns="http://www.w3.org/2000/svg" viewBox="0 0 58.01 42.81"><defs><style>.cls-1{fill:#c92e36;}</style></defs><g id="レイヤー_2" data-name="レイヤー 2"><g id="レイヤー_1-2" data-name="レイヤー 1"><path class="cls-1" d="M29.41,41.42a8.81,8.81,0,0,1-6.29-2.68,9.33,9.33,0,0,1-2.61-6.47v-.7h0a10.4,10.4,0,0,0-10.23-9.85,10.55,10.55,0,0,0,0,21.09A10.28,10.28,0,0,0,19.84,36a10.58,10.58,0,0,0,2.32,3.7,10.15,10.15,0,0,0,7.25,3.09h.68V41.42ZM1.35,32.27a9.28,9.28,0,0,1,2-5.82l6.08,5.29v9.65a9.08,9.08,0,0,1-8.11-9.12m9.46,9.13V31.78l6.45-5.16a9.29,9.29,0,0,1,1.9,5.65,9.06,9.06,0,0,1-8.35,9.13"/><path class="cls-1" d="M57.34,41.42A8.82,8.82,0,0,1,51,38.74a9.33,9.33,0,0,1-2.61-6.47v-.7h0A10.27,10.27,0,1,0,38.18,42.81,10.27,10.27,0,0,0,47.76,36a10.46,10.46,0,0,0,2.33,3.7,10.14,10.14,0,0,0,7.25,3.09H58V41.42ZM29.27,32.27a9.24,9.24,0,0,1,3.78-7.48v15a9.25,9.25,0,0,1-3.78-7.48m13.59,7.78-8.62-7.73,9.17-7.46a9.3,9.3,0,0,1-.55,15.19"/><path class="cls-1" d="M43.14,19.7A8.82,8.82,0,0,1,36.84,17a9.33,9.33,0,0,1-2.61-6.47v-.7h0A10.39,10.39,0,0,0,24,0,10.42,10.42,0,0,0,13.72,10.55,10.41,10.41,0,0,0,24,21.09a10.27,10.27,0,0,0,9.58-6.79A10.59,10.59,0,0,0,35.89,18a10.17,10.17,0,0,0,7.25,3.08h.67V19.7ZM24,19.7A8.69,8.69,0,0,1,21,19.19l6.67-5.43L20.32,7.08,26.7,1.83a9.16,9.16,0,0,1,6.18,8.72A9,9,0,0,1,24,19.7"/><polygon class="cls-1" points="20.14 23.4 24.29 30.79 28.43 23.4 20.14 23.4"/></g></g></svg>