<svg xmlns="http://www.w3.org/2000/svg" viewBox="0 0 225.22 222.69"><defs><style>.cls-1{fill:#504946;}</style></defs><g id="レイヤー_2" data-name="レイヤー 2"><g id="レイヤー_1-2" data-name="レイヤー 1"><path class="cls-1" d="M93.06,199.4a87.87,87.87,0,0,1-22.91-3,17.32,17.32,0,0,1-3.33-10.81c0-7.53,3.23-11,7.32-15.52,4.54-5,9.68-10.57,9.68-21.59s-5.14-16.65-9.68-21.6c-3.54-3.86-6.43-7-7.15-12.67l-.14-1.6c0-.41,0-.82,0-1.25,0-7.53,3.23-11,7.32-15.52,4.54-4.95,9.68-10.57,9.68-21.59s-5.14-16.65-9.68-21.6c-4.09-4.46-7.32-8-7.32-15.52a17.32,17.32,0,0,1,3.32-10.79,88,88,0,0,1,92.41,31l4.37-2.52A93,93,0,0,0,75.65,19.93C79.75,15.34,83.82,9.81,83.82,0h-9c0,7.53-3.23,11.05-7.32,15.52A43.07,43.07,0,0,0,61,24a93.06,93.06,0,0,0,0,174.72,43.29,43.29,0,0,0,6.51,8.46c4.09,4.47,7.32,8,7.32,15.52h9c0-9.81-4.07-15.34-8.17-19.92a93.08,93.08,0,0,0,89.09-32.15l-4.4-2.54A87.89,87.89,0,0,1,93.06,199.4Zm-34.49-7a88.05,88.05,0,0,1,0-162,29.67,29.67,0,0,0-.75,6.78c0,11,5.14,16.65,9.68,21.6,4.09,4.46,7.32,8,7.32,15.52s-3.23,11-7.32,15.51c-4.54,5-9.68,10.57-9.68,21.6S63,128,67.5,132.94c4.09,4.46,7.32,8,7.32,15.52s-3.23,11-7.32,15.51c-4.54,5-9.68,10.57-9.68,21.6A29.78,29.78,0,0,0,58.57,192.37Z"/><path class="cls-1" d="M38.71,155a70.05,70.05,0,0,0,5.68,6.25l-6.28,6.45a79.26,79.26,0,0,1-6.41-7.06Zm-19-72.4,8.37,3.28a70,70,0,0,1,3.56-7.66L23.74,74A77.14,77.14,0,0,0,19.73,82.64Zm3.6,28.71a69.45,69.45,0,0,1,.37-7.23l-9-.93c-.27,2.69-.41,5.44-.41,8.16,0,.45,0,.91,0,1.36l9-.15C23.33,112.16,23.33,111.75,23.33,111.35Zm70.42,78.73-.09-9h-.6a70.63,70.63,0,0,1-7.84-.44l-1,9a81.09,81.09,0,0,0,8.83.49ZM17.52,133.61a78.27,78.27,0,0,0,3.25,9L29,139a70.35,70.35,0,0,1-2.88-7.94ZM36.19,56.89l6.5,6.23a71.54,71.54,0,0,1,6.2-5.74l-5.7-7A79.22,79.22,0,0,0,36.19,56.89ZM153.55,61A80.83,80.83,0,0,0,147,54l-6.17,6.55a71.93,71.93,0,0,1,5.68,6l.87-.51ZM149,166.78l-6.39-6.34a70,70,0,0,1-6.3,5.63l5.58,7.06A79.2,79.2,0,0,0,149,166.78Zm-25.3,17.13-3.5-8.29a70.36,70.36,0,0,1-8,2.8l2.47,8.66A79.37,79.37,0,0,0,123.67,183.91ZM91,32.64l.24,9a72.06,72.06,0,0,1,8.44.28l.85-9A82,82,0,0,0,91,32.64Zm26.92,13.53a72.94,72.94,0,0,1,7.7,3.49l4.2-7.95a77.11,77.11,0,0,0-8.69-3.94Z"/><path class="cls-1" d="M213.65,31.2l11.57-7.07V201.45l-11.57-7.07Zm-96,104.51,12,7.34V82.54l-12,7.33Zm36-67.84-12,7.34v75.17l12,7.33Zm24-14.67-12,7.34V165.05l12,7.33Zm24-14.66-12,7.33V179.72l12,7.33Zm-96,58.67-25.5,15.58,25.5,15.59Z"/></g></g></svg>